<?xml version="1.0" encoding="UTF-8"?><svg id="uuid-ea345391-3508-4092-97ba-88a0d8ab5e87" xmlns="http://www.w3.org/2000/svg" xmlns:xlink="http://www.w3.org/1999/xlink" viewBox="0 0 4682.7 2079.86"><defs><linearGradient id="uuid-ceb4e225-5626-4f98-a07a-1c8e468121df" x1="3514.05" y1="-5135.4" x2="3514.05" y2="-4609.9" gradientTransform="translate(0 -3701.8) scale(1 -1)" gradientUnits="userSpaceOnUse"><stop offset="0" stop-color="#0290de"/><stop offset="1" stop-color="#0000a9"/></linearGradient><linearGradient id="uuid-69732037-fa79-465e-89ff-81ed9d260bc2" x1="882.51" y1="-4660.99" x2="1592.11" y2="-5566.39" gradientTransform="translate(0 -3701.8) scale(1 -1)" gradientUnits="userSpaceOnUse"><stop offset="0" stop-color="#332cde"/><stop offset=".5" stop-color="#0290de"/><stop offset="1" stop-color="#0000a9"/></linearGradient><linearGradient id="uuid-b2d7a436-38fa-4377-bd5e-df14a672ce2b" x1="472.95" y1="-6349.1" x2="629.65" y2="-3435.6" xlink:href="#uuid-69732037-fa79-465e-89ff-81ed9d260bc2"/><linearGradient id="uuid-326baae2-5e8b-4e9c-bc1d-b0bdbd53063f" x1="1866.64" y1="-5711.49" x2="1474.84" y2="-4701.59" gradientTransform="translate(0 -3701.8) scale(1 -1)" gradientUnits="userSpaceOnUse"><stop offset="0" stop-color="#e78d13"/><stop offset=".2" stop-color="#e88f15"/><stop offset=".4" stop-color="#ee991e"/><stop offset=".5" stop-color="#f3a125"/><stop offset="1" stop-color="#df5c24"/></linearGradient><linearGradient id="uuid-9f276ac5-1a1a-4327-b7d5-05cde983be2f" x1="1029.72" y1="-5129.81" x2="2035.22" y2="-3047.01" gradientTransform="translate(0 -3701.8) scale(1 -1)" gradientUnits="userSpaceOnUse"><stop offset="0" stop-color="#156900"/><stop offset="0" stop-color="#157303"/><stop offset=".2" stop-color="#158f0c"/><stop offset=".4" stop-color="#15bd1a"/><stop offset=".5" stop-color="#15d321"/><stop offset="1" stop-color="#156900"/></linearGradient><linearGradient id="uuid-1376ae4b-f957-4ce0-8603-63d3f4670073" x1="-61.2" y1="-5403.28" x2="1202" y2="-5615.28" xlink:href="#uuid-69732037-fa79-465e-89ff-81ed9d260bc2"/><linearGradient id="uuid-c683f193-b7f1-4f4a-96a5-dff9bcc0632c" x1="1697" y1="-5730.52" x2="391.2" y2="-5478.02" xlink:href="#uuid-9f276ac5-1a1a-4327-b7d5-05cde983be2f"/><linearGradient id="uuid-15efd4d7-dc2d-4cc1-9833-6c5a108c97a5" x1="118.8" y1="-5441.12" x2="1424.7" y2="-5670.42" xlink:href="#uuid-9f276ac5-1a1a-4327-b7d5-05cde983be2f"/><linearGradient id="uuid-ec3b9ac3-07ae-4911-9b06-2a0112f32479" x1="0" y1="-5407.77" x2="1086.9" y2="-5407.77" xlink:href="#uuid-69732037-fa79-465e-89ff-81ed9d260bc2"/><linearGradient id="uuid-185c4557-a3b9-409c-942f-70f1d45b9385" x1="1071.34" y1="-5401.61" x2="1397.84" y2="-3993.51" xlink:href="#uuid-9f276ac5-1a1a-4327-b7d5-05cde983be2f"/><linearGradient id="uuid-e20cc2b2-3f8d-4c9c-83fb-39d022a5d458" x1="2271.01" y1="-5529.89" x2="367.31" y2="-4647.79" xlink:href="#uuid-69732037-fa79-465e-89ff-81ed9d260bc2"/><linearGradient id="uuid-d0ec4d2d-7f48-4ec7-aee3-009047d25df4" x1="1265.24" y1="-4821.75" x2="2090.88" y2="-4821.75" gradientTransform="translate(0 -3701.8) scale(1 -1)" gradientUnits="userSpaceOnUse"><stop offset="0" stop-color="#e78d13"/><stop offset=".5" stop-color="#f3a125"/><stop offset=".7" stop-color="#eb8824"/><stop offset="1" stop-color="#df5c24"/></linearGradient><linearGradient id="uuid-3ad4db69-b5e9-4542-b70e-77607f5faa01" x1="733.69" y1="-4023.69" x2="285.39" y2="-4382.79" gradientTransform="translate(0 -3701.8) scale(1 -1)" gradientUnits="userSpaceOnUse"><stop offset="0" stop-color="#332cde"/><stop offset=".2" stop-color="#3030de"/><stop offset=".4" stop-color="#2a3dde"/><stop offset=".6" stop-color="#2052de"/><stop offset=".8" stop-color="#1170de"/><stop offset="1" stop-color="#0290de"/><stop offset="1" stop-color="#0000a9"/></linearGradient><linearGradient id="uuid-507f0da2-fc49-4284-a46e-f8f0621d149c" x1="691.61" y1="-5460.5" x2="819.31" y2="-3127.3" xlink:href="#uuid-69732037-fa79-465e-89ff-81ed9d260bc2"/><linearGradient id="uuid-3c262661-1941-4598-834b-f545c7f51d6d" x1="397.94" y1="-5162.2" x2="450.24" y2="-4117.5" gradientTransform="translate(0 -3701.8) scale(1 -1)" gradientUnits="userSpaceOnUse"><stop offset="0" stop-color="#e15a26"/><stop offset=".2" stop-color="#e15c25"/><stop offset=".3" stop-color="#e46625"/><stop offset=".4" stop-color="#e87625"/><stop offset=".5" stop-color="#ed8c25"/><stop offset=".6" stop-color="#ee8f24"/><stop offset="1" stop-color="#df5c24"/></linearGradient><linearGradient id="uuid-03fb3982-b4fe-442e-8bfa-f72d3671421d" x1="503.62" y1="-5328.49" x2="209.82" y2="-4849.69" gradientTransform="translate(0 -3701.8) scale(1 -1)" gradientUnits="userSpaceOnUse"><stop offset="0" stop-color="#e15a26"/><stop offset=".4" stop-color="#e77325"/><stop offset=".5" stop-color="#f3a125"/><stop offset=".7" stop-color="#f29e24"/><stop offset="1" stop-color="#e06024"/><stop offset="1" stop-color="#df5c24"/></linearGradient><linearGradient id="uuid-8cd889e5-6ee9-4a21-b5c5-d077da671a19" x1="434.6" y1="-5235.8" x2="302.5" y2="-4947.8" gradientTransform="translate(0 -3701.8) scale(1 -1)" gradientUnits="userSpaceOnUse"><stop offset="0" stop-color="#e15a26"/><stop offset=".5" stop-color="#f3a125"/><stop offset="1" stop-color="#e15a26"/></linearGradient><linearGradient id="uuid-add80432-15fe-4182-ac7f-355b8479bc3f" x1="1837.17" y1="-4494.7" x2="1830.07" y2="-4196" gradientTransform="translate(0 -3647.8) scale(1 -1)" xlink:href="#uuid-ceb4e225-5626-4f98-a07a-1c8e468121df"/></defs><g id="uuid-fc477193-3d9c-4f88-9d1e-941e8980cd19"><path d="M2958.8,908.2v525.4h-146.1v-289.9l-99.1,289.9h-122.2l-99.9-292.2v292.2h-146.1v-525.4h176.6l131.9,341.4,128.9-341.4h176ZM3188.4,908.2v525.4h-146.1v-525.4h146.1ZM3417.9,1321.8h163.2v111.8h-309.3v-525.4h146.1v413.6h0ZM3970.2,1347.9h-186.3l-28.3,85.7h-153.5l191.5-525.4h168.4l190.8,525.4h-154.3l-28.3-85.7h0ZM3933.7,1236.1l-56.6-169.9-55.9,169.9h112.5ZM4553.4,941.3c41.5,22.1,73.4,53,95.8,92.8s33.5,85.2,33.5,136.4-11.3,95.9-33.9,135.6c-22.6,39.8-54.7,70.9-96.1,93.5-41.5,22.6-89.6,33.9-144.2,33.9h-207.9v-525.4h207.9c55.2,0,103.5,11.1,145,33.2h-.1ZM4497.9,1269.6c24.3-23.3,36.5-56.4,36.5-99.1s-12.2-76.6-36.5-100.2c-24.4-23.6-57.9-35.4-100.6-35.4h-50.7v269.8h50.7c42.7,0,76.3-11.7,100.6-35h0v-.1Z" style="fill:url(#uuid-ceb4e225-5626-4f98-a07a-1c8e468121df);"/><g style="isolation:isolate;"><g style="isolation:isolate;"><g style="isolation:isolate;"><g style="isolation:isolate;"><g style="isolation:isolate;"><text transform="translate(2351.3 1622.2)" style="font-family:Poppins-SemiBold, Poppins; font-size:137.7px; font-weight:600; isolation:isolate;"><tspan x="0" y="0">Berdedikasi Qur’an</tspan></text></g></g></g></g><g style="isolation:isolate;"><g style="isolation:isolate;"><g style="isolation:isolate;"><g style="isolation:isolate;"><text transform="translate(2351.3 1787.5)" style="font-family:Poppins-SemiBold, Poppins; font-size:137.7px; font-weight:600; isolation:isolate;"><tspan x="0" y="0">Kampus Inklusif &amp; Pro Perubahan</tspan></text></g></g></g></g></g><path d="M1784.1,1445.2c2.9,24,2.3,48.3-2,72.1-29.5,162.8-163.6,308.7-320.9,353.5-108.8,31.1-231.6,16.6-318.8-10.8-27.8-8.8-54.3-21.3-79-36.9-12.9-8.2-25.9-16.4-36.7-26.4-123.9-115.2-201.9-302.1-196.3-458.5,6-167.2,26.4-215.6,68.7-309.1h0c30.6-62.5,73.4-118.4,120.2-170.9l-26.8,103.7c-76.4,315.9,124.9,735.5,490.1,711.8,123.4-8,262.4-110.5,301.6-228.4h0l-.1-.1Z" style="fill:url(#uuid-69732037-fa79-465e-89ff-81ed9d260bc2);"/><path d="M841.5,1211.6c1.1-5.9,2.4-11.9,3.7-17.8-1.3,5.9-2.6,11.8-3.7,17.8Z"/><path d="M808.9,529.9v1120.8c-51.1-28.4-105.4-50.1-161-67.8-22.9-7.3-45.9-13.9-69.1-20-21.8-5.7-38.2-10.5-66.6-18.2v-875.7h-215.2l107.5-248.5c2.2-5,5.7-9.2,10.2-12.2,4.4-3,9.6-4.6,14.9-4.8l218.4-6.8,22.8-.7c75.6-2.4,138.2,58.3,138.2,134h0l-.1-.1Z" style="fill:url(#uuid-b2d7a436-38fa-4377-bd5e-df14a672ce2b);"/><path d="M1324.2,1918c-.8-5.7,7.4-3.1,11.4-3.2,25.8-1,48.5-.3,74.6-3.7,300.3-39.6,519.8-399.2,345.9-671.2-91.7-143.4-281.1-213.3-441.5-145.3-16.8,7.1-32.2,17.4-49,24.3-2.3-2.3,11.1-20.2,13.6-23.9,72.6-107,167.6-201.8,250.6-300.7,390.7,25.7,643.9,401.8,536.4,777.9-16.9,59.2-41.4,137.2-121.1,214.7-22.3,21.6-102.1,75.5-163.1,101.2-143.4,60.6-307.1,58.6-457.8,29.8h0v.1Z" style="fill:url(#uuid-326baae2-5e8b-4e9c-bc1d-b0bdbd53063f);"/><path d="M1775.9,285.6c17.7,44.2,15.5,94-6.1,136.4s-11.4,21.8-14.5,27.4c-83.1,151.1-201.1,266.9-312.1,395.7-119.2,138.4-316.1,357.4-323.3,546.2-1,27,2.4,53.4,3.7,80.1-174.3-240.4-146.3-574.2,37.6-800.6,179.2-220.7,408.1-363.2,495.6-652.5,1.4-4.6,4.8-18.1,4.8-18.1l114.3,285.5h0v-.1Z" style="fill:url(#uuid-9f276ac5-1a1a-4327-b7d5-05cde983be2f);"/><path d="M841.5,1211.6c1.1-5.9,2.4-11.9,3.7-17.8-1.3,5.9-2.6,11.8-3.7,17.8Z"/><path d="M1086.9,1836.7c-95.7-30.9-196.7-63.9-297.5-83.5-251.2-48.7-492.1-1.4-702.4,142.6l-51.2,38.5c25.8-56,61.4-113.8,102.7-159.8,15.1-16.8,32.9-30.2,48.9-45.7,3.2-3.1,6.2-4.2,5-9.7-61.8-27.2-126.3-24.8-192.4-21.2,69.9-56.2,159.6-96.2,247.8-114.3,252.2-51.6,488.5,51.3,704.6,169.6,25.1,13.7,49.2,29.5,74.2,43.4,18.4,15.8,40.4,28.9,60.3,40.1h0Z" style="fill:url(#uuid-1376ae4b-f957-4ce0-8603-63d3f4670073);"/><path d="M1912.1,1856.2c-116,118.3-303.9,212.4-471.2,221.9-289.5,16.5-443.5-86.8-703-158.3-211-58.1-428.7-59.6-636,14.6l10.1-7.9c105.8-81.1,248.5-139.9,380.1-157.9,463.4-63.4,853.9,349.2,1317.8,143.6l102.2-56h0Z" style="fill:url(#uuid-c683f193-b7f1-4f4a-96a5-dff9bcc0632c);"/><path d="M1912.1,1856.2c-224.9,192.4-646.8,154.6-898.3,58.8-413.5-172.5-596.7-130.9-911.8,19.4l10.1-7.9c105.8-81.1,248.5-139.9,380.1-157.9,463.4-63.4,853.9,349.2,1317.8,143.6l102.2-56h-.1Z" style="fill:url(#uuid-15efd4d7-dc2d-4cc1-9833-6c5a108c97a5);"/><path d="M1086.9,1836.7c-312.7-171.6-616.9-230.1-894.2-115.2,0-.7,0-1.5-.3-2.4C130.6,1691.9,66.1,1694.3,0,1697.9c69.9-56.2,159.6-96.2,247.8-114.3,252.2-51.6,488.5,51.3,704.6,169.6,25.1,13.7,49.2,29.5,74.2,43.4,18.1,15.6,38.3,27.4,60.3,40.1l-5.6,5.3,5.6-5.3h0Z" style="fill:url(#uuid-ec3b9ac3-07ae-4911-9b06-2a0112f32479);"/><path d="M1661.9.9c-3.6,256.8-79.3,430.6-347.1,691.6-236.3,238.9-316.2,501.7-191.2,778.7-174.2-240.4-146.3-574.2,37.6-800.6,179.2-220.7,408.1-363.3,495.6-652.5,1.4-4.6,4.8-18.1,4.8-18.1l.4.9h-.1Z" style="fill:url(#uuid-185c4557-a3b9-409c-942f-70f1d45b9385);"/><path d="M1755.3,1504.8c-323,603.7-1078.5,77.1-739.8-642.4,1.2-1.4,2.5-2.8,3.8-4.3l-26.8,103.7c-76.4,315.9,124.9,735.5,490.1,711.8,102-6.6,214.6-77.8,272.8-168.8h-.1Z" style="fill:url(#uuid-e20cc2b2-3f8d-4c9c-83fb-39d022a5d458);"/><path d="M2089.1,1445.3c-35.1-331.7-494.5-626.1-823.6-326.3-2.3-2.3,11.1-20.2,13.6-23.8,72.6-107,167.6-201.8,250.6-300.7,346.5,22.8,584.9,321.3,559.3,650.9h0l.1-.1Z" style="fill:url(#uuid-d0ec4d2d-7f48-4ec7-aee3-009047d25df4);"/><path d="M670.6,395.9l-241.2,7.5c-5.3.2-10.5,1.8-14.9,4.8-4.5,3-8,7.3-10.2,12.2l-107.5,248.5h215.3l234-252.6c-21.8-13.7-47.7-21.4-75.5-20.5h0v.1Z" style="fill:url(#uuid-3ad4db69-b5e9-4542-b70e-77607f5faa01);"/><path d="M808.9,529.9v1120.8c-51.1-28.4-105.4-50.1-161-67.8V522.5l98.3-106.1c37.6,23.7,62.7,65.6,62.7,113.5h0Z" style="fill:url(#uuid-507f0da2-fc49-4284-a46e-f8f0621d149c);"/><path d="M479.4,1487.6c-48.8-51.6-73.1-127.9-81.1-197.7-9.8-85.8,10.5-149.7,15.9-231.2.5-8.1-.2-16.3,0-24.4l-35.8,184.3c.6,38.9-3.4,77.9,6.5,115.7l-32.1-44.5c-12.4-24.3-21.4-57-23.4-84.2-9.1-123.7,89.4-229.9,36-350.7,2.7-2.6,16.6,8.9,19.6,11.3,187.7,154.7,57.5,325.5,71.8,518.6,2.6,35.1,14.8,68.8,22.8,102.8h-.2Z" style="fill:url(#uuid-3c262661-1941-4598-834b-f545c7f51d6d);"/><path d="M499,1543c-.2,0-.5-.1-.7-.2-134.4-38.8-237.1-153-203.2-299.9.6-2.5,3.6-21.2,8.2-23.8,1-.6,2.1-.4,3.3,1,5.4,39.9,27.2,84,53.8,114.2,7,8,29.9,24.9,32.5,29.4,5,8.6,9.8,37.3,14.8,50.5,21,55.4,49.3,88.3,91.4,128.7h-.1v.1Z" style="fill:url(#uuid-03fb3982-b4fe-442e-8bfa-f72d3671421d);"/><path d="M498.7,1542.8c-134.4-38.8-237.1-153-203.2-299.9.6-2.5,3.6-21.2,8.2-23.8,7.8,155.8,77.4,258.6,195,323.7Z" style="fill:url(#uuid-8cd889e5-6ee9-4a21-b5c5-d077da671a19);"/><path d="M1819.3,633v30.6h-36.9v107.7h-38.4v-107.7h-36.5v-30.6h111.8ZM1957.4,633v138.3h-38.4v-55.5h-46.9v55.5h-38.4v-138.3h38.4v52h46.9v-52h38.4Z" style="fill:url(#uuid-add80432-15fe-4182-ac7f-355b8479bc3f);"/></g></svg>